<svg width="16" height="16" viewBox="0 0 16 16" fill="none" xmlns="http://www.w3.org/2000/svg">
<path d="M6.97266 15.2592L5.44765 14.7564C5.28765 14.7052 5.19765 14.5149 5.24265 14.3331L8.65516 0.975107C8.70016 0.793289 8.86766 0.691016 9.02766 0.742152L10.5527 1.24499C10.7127 1.29613 10.8027 1.48647 10.7577 1.66829L7.34516 15.0262C7.29766 15.2081 7.13266 15.3132 6.97266 15.2592ZM4.12265 12.0717L5.21015 10.7535C5.32515 10.6143 5.31765 10.3927 5.19015 10.2649L2.92514 8.00067L5.19015 5.73647C5.31765 5.60863 5.32765 5.38704 5.21015 5.24783L4.12265 3.92965C4.01015 3.79329 3.82015 3.78477 3.69765 3.91545L0.095137 7.75067C-0.0323634 7.8842 -0.0323634 8.11431 0.095137 8.24783L3.69765 12.0859C3.82015 12.2166 4.01015 12.2109 4.12265 12.0717ZM12.3027 12.0887L15.9052 8.25067C16.0327 8.11715 16.0327 7.88704 15.9052 7.75352L12.3027 3.91261C12.1827 3.78477 11.9927 3.79045 11.8777 3.92681L10.7902 5.24499C10.6752 5.3842 10.6827 5.60579 10.8102 5.73363L13.0752 8.00067L10.8102 10.2649C10.6827 10.3927 10.6727 10.6143 10.7902 10.7535L11.8777 12.0717C11.9902 12.2109 12.1802 12.2166 12.3027 12.0887Z" fill="black"/>
</svg>
