<svg width="16" height="16" viewBox="0 0 16 16" fill="none" xmlns="http://www.w3.org/2000/svg">
<path d="M14.3652 9.13241C14.5096 8.38278 14.5096 7.61721 14.3652 6.86759L15.7982 6.07543C15.9649 5.98505 16.0371 5.79898 15.9815 5.62353C15.6094 4.47517 14.9706 3.43314 14.1375 2.57187C14.0098 2.43896 13.8042 2.40706 13.6376 2.49744L12.2046 3.2896C11.5992 2.79516 10.9049 2.41238 10.1551 2.15719V0.572873C10.1551 0.392112 10.0218 0.232617 9.83848 0.195401C8.59987 -0.0704231 7.33904 -0.0597901 6.16153 0.195401C5.97823 0.232617 5.84493 0.392112 5.84493 0.572873V2.15719C5.0951 2.41238 4.40081 2.79516 3.79539 3.2896L2.36238 2.49744C2.20131 2.40706 1.99025 2.43896 1.8625 2.57187C1.02935 3.43314 0.390608 4.47517 0.0184698 5.62353C-0.0370733 5.79898 0.0406864 5.98505 0.201761 6.07543L1.63477 6.86759C1.49036 7.61721 1.49036 8.38278 1.63477 9.13241L0.201761 9.92457C0.0351321 10.0149 -0.0370733 10.201 0.0184698 10.3765C0.390608 11.5248 1.02935 12.5615 1.8625 13.4281C1.99025 13.561 2.19576 13.5929 2.36238 13.5026L3.79539 12.7104C4.40081 13.2048 5.0951 13.5876 5.84493 13.8428V15.4271C5.84493 15.6079 5.97823 15.7674 6.16153 15.8046C7.40014 16.0704 8.66096 16.0598 9.83848 15.8046C10.0218 15.7674 10.1551 15.6079 10.1551 15.4271V13.8428C10.9049 13.5876 11.5992 13.2048 12.2046 12.7104L13.6376 13.5026C13.7987 13.5929 14.0098 13.561 14.1375 13.4281C14.9706 12.5669 15.6094 11.5248 15.9815 10.3765C16.0371 10.201 15.9593 10.0149 15.7982 9.92457L14.3652 9.13241ZM8.00556 10.5785C6.517 10.5785 5.31172 9.4195 5.31172 8C5.31172 6.5805 6.52256 5.42151 8.00556 5.42151C9.48855 5.42151 10.6994 6.5805 10.6994 8C10.6994 9.4195 9.49411 10.5785 8.00556 10.5785Z" fill="black"/>
</svg>
