<svg width="16" height="16" viewBox="0 0 16 16" fill="none" xmlns="http://www.w3.org/2000/svg">
<path d="M14.2219 9.8182C14.2219 9.8182 12.4441 12.4503 12.4441 13.4546C12.4441 14.4588 13.2402 15.2727 14.2219 15.2727C15.2036 15.2727 15.9997 14.4588 15.9997 13.4546C15.9997 12.4503 14.2219 9.8182 14.2219 9.8182ZM13.9616 6.89377L8.19242 0.993488C8.01881 0.815931 7.79131 0.727295 7.56381 0.727295C7.33631 0.727295 7.10881 0.815931 6.93547 0.993488L4.66935 3.3111L2.27545 0.862522C2.10184 0.684965 1.82045 0.684965 1.64712 0.862522L1.01878 1.50514C0.845447 1.68269 0.845447 1.97048 1.01878 2.14775L3.41296 4.59604L0.780725 7.28809C-0.260669 8.35286 -0.260669 10.0796 0.780725 11.1446L4.03602 14.4739C4.55657 15.0063 5.23908 15.2727 5.9213 15.2727C6.60381 15.2727 7.28603 15.0066 7.80659 14.4739L13.9613 8.17928C14.3086 7.82417 14.3086 7.24889 13.9616 6.89377ZM10.7333 8.90997H1.83101C1.86878 8.80087 1.93017 8.68326 2.0374 8.57389L2.40268 8.20031L4.66963 5.88184L6.29742 7.54661C6.64436 7.90144 7.20714 7.90144 7.55409 7.54661C7.90103 7.19178 7.90103 6.61622 7.55409 6.26139L5.9263 4.59661L7.56381 2.9219L12.0761 7.53667L10.7333 8.90997Z" fill="black"/>
</svg>
