<svg width="16" height="16" viewBox="0 0 16 16" fill="none" xmlns="http://www.w3.org/2000/svg">
<path d="M0 14.5C0 15.3281 0.767857 16 1.71429 16H14.2857C15.2321 16 16 15.3281 16 14.5V6H0V14.5ZM11.4286 8.375C11.4286 8.16875 11.6214 8 11.8571 8H13.2857C13.5214 8 13.7143 8.16875 13.7143 8.375V9.625C13.7143 9.83125 13.5214 10 13.2857 10H11.8571C11.6214 10 11.4286 9.83125 11.4286 9.625V8.375ZM11.4286 12.375C11.4286 12.1687 11.6214 12 11.8571 12H13.2857C13.5214 12 13.7143 12.1687 13.7143 12.375V13.625C13.7143 13.8313 13.5214 14 13.2857 14H11.8571C11.6214 14 11.4286 13.8313 11.4286 13.625V12.375ZM6.85714 8.375C6.85714 8.16875 7.05 8 7.28571 8H8.71429C8.95 8 9.14286 8.16875 9.14286 8.375V9.625C9.14286 9.83125 8.95 10 8.71429 10H7.28571C7.05 10 6.85714 9.83125 6.85714 9.625V8.375ZM6.85714 12.375C6.85714 12.1687 7.05 12 7.28571 12H8.71429C8.95 12 9.14286 12.1687 9.14286 12.375V13.625C9.14286 13.8313 8.95 14 8.71429 14H7.28571C7.05 14 6.85714 13.8313 6.85714 13.625V12.375ZM2.28571 8.375C2.28571 8.16875 2.47857 8 2.71429 8H4.14286C4.37857 8 4.57143 8.16875 4.57143 8.375V9.625C4.57143 9.83125 4.37857 10 4.14286 10H2.71429C2.47857 10 2.28571 9.83125 2.28571 9.625V8.375ZM2.28571 12.375C2.28571 12.1687 2.47857 12 2.71429 12H4.14286C4.37857 12 4.57143 12.1687 4.57143 12.375V13.625C4.57143 13.8313 4.37857 14 4.14286 14H2.71429C2.47857 14 2.28571 13.8313 2.28571 13.625V12.375ZM14.2857 2H12.5714V0.5C12.5714 0.225 12.3143 0 12 0H10.8571C10.5429 0 10.2857 0.225 10.2857 0.5V2H5.71429V0.5C5.71429 0.225 5.45714 0 5.14286 0H4C3.68571 0 3.42857 0.225 3.42857 0.5V2H1.71429C0.767857 2 0 2.67188 0 3.5V5H16V3.5C16 2.67188 15.2321 2 14.2857 2Z" fill="black"/>
</svg>
