<svg width="16" height="15" viewBox="0 0 16 15" fill="none" xmlns="http://www.w3.org/2000/svg">
<path d="M9.25032 0.997559H15.2503C15.6645 0.997559 16.0003 1.33334 16.0003 1.74756V6.74756C16.0003 7.16178 15.6645 7.49756 15.2503 7.49756H9.25032C8.83611 7.49756 8.50032 7.16178 8.50032 6.74756V1.74756C8.50032 1.33334 8.83611 0.997559 9.25032 0.997559ZM6.75032 0.997559H0.750324C0.336105 0.997559 0.000324249 1.33334 0.000324249 1.74756V6.74756C0.000324249 7.16178 0.336105 7.49756 0.750324 7.49756H6.75032C7.16454 7.49756 7.50032 7.16178 7.50032 6.74756V1.74756C7.50032 1.33334 7.16454 0.997559 6.75032 0.997559ZM0.000324249 9.24756V14.2476C0.000324249 14.6618 0.336105 14.9976 0.750324 14.9976H6.75032C7.16454 14.9976 7.50032 14.6618 7.50032 14.2476V9.24756C7.50032 8.83334 7.16454 8.49756 6.75032 8.49756H0.750324C0.336105 8.49756 0.000324249 8.83334 0.000324249 9.24756ZM9.25032 14.9976H15.2503C15.6645 14.9976 16.0003 14.6618 16.0003 14.2476V9.24756C16.0003 8.83334 15.6645 8.49756 15.2503 8.49756H9.25032C8.83611 8.49756 8.50032 8.83334 8.50032 9.24756V14.2476C8.50032 14.6618 8.83611 14.9976 9.25032 14.9976Z" fill="black"/>
</svg>
